<?xml version="1.0" encoding="UTF-8"?>
<svg xmlns="http://www.w3.org/2000/svg" viewBox="0 0 150 190" role="img" aria-label="Enervisa mark">
  <g fill="#1B3A5C">
    <path d="M18 18 q8 -10 22 -6 q14 4 14 22 q0 18 -14 26 q-14 8 -24 -6 q-10 -14 2 -36 z"/>
    <path d="M42 78 q8 -10 22 -6 q14 4 14 22 q0 18 -14 26 q-14 8 -24 -6 q-10 -14 2 -36 z"/>
    <path d="M66 138 q8 -10 22 -6 q14 4 14 22 q0 18 -14 26 q-14 8 -24 -6 q-10 -14 2 -36 z"/>
    <path d="M120 18 q-8 -10 -22 -6 q-14 4 -14 22 q0 18 14 26 q14 8 24 -6 q10 -14 -2 -36 z"/>
    <path d="M144 78 q-8 -10 -22 -6 q-14 4 -14 22 q0 18 14 26 q14 8 24 -6 q10 -14 -2 -36 z"/>
    <path d="M96 132 q14 -4 24 8 q10 12 2 28 q-8 16 -22 16 q-14 0 -20 -14 q-6 -14 4 -28 q6 -8 12 -10 z"/>
  </g>
</svg>
